<svg id="Ñëîé_1" data-name="Ñëîé 1" xmlns="http://www.w3.org/2000/svg" viewBox="0 0 381.57 364.98"><defs><style>.cls-1,.cls-6{fill:#173d7a;}.cls-1,.cls-11{opacity:0.5;}.cls-2{fill:#094546;}.cls-3{fill:#073333;}.cls-4{fill:#29a5a5;}.cls-5{fill:#fff;}.cls-7{fill:#396caa;}.cls-8{fill:#274f89;}.cls-11,.cls-9{fill:#c1eae9;}.cls-10{fill:#5793ce;}.cls-12{fill:aqua;}.cls-13{fill:#ffc2b0;}.cls-14{fill:#ea9c92;}</style></defs><title>cashreg</title><path class="cls-1" d="M400.12,372.89l-129.3-74.65a4.36,4.36,0,0,1,0-7.55l122.94-71,137.55,79.41a4.36,4.36,0,0,1,0,7.55L416.63,372.89A16.51,16.51,0,0,1,400.12,372.89Z" transform="translate(-179.99 -38.97)"/><path class="cls-2" d="M396.39,180c0-8.22-5.78-11.56-12.89-7.46L262.57,242.21a7.83,7.83,0,0,0-3.54,6.13c0,2.26,1.58,3.17,3.54,2l120.92-69.68c3.21-1.85,5.82-.34,5.82,3.37l0,13.52c2.35-.15,4.7-.15,7.08-.11Z" transform="translate(-179.99 -38.97)"/><path class="cls-3" d="M262.52,274.7l120.93-44.06c7.11-4.1,12.91-14.11,12.91-22.32V197.49c-2.38,0-4.73,0-7.08.11v14.8a12.86,12.86,0,0,1-5.82,10.06L262.53,266.53a7.82,7.82,0,0,0-3.55,6.13C259,274.91,260.57,275.83,262.52,274.7Z" transform="translate(-179.99 -38.97)"/><polygon class="cls-3" points="79.91 235.9 227.01 321.02 351.56 246.75 361.44 232 360.41 237.22 357.76 223.54 126.57 232.36 85.84 229.74 79.91 235.9"/><polygon class="cls-4" points="84.79 210.21 84.75 228.32 226.92 310.57 230.76 293.32 84.79 210.21"/><polygon class="cls-2" points="359.61 217.72 212.74 132.75 80.32 209.76 80.05 211.65 227.13 296.74 359.61 217.72"/><path class="cls-5" d="M492.77,300.32l34.53-20.48a13,13,0,0,0,5.2-9.63l0-2.71c0-2.2-.91-3.61-2.33-4l-68,37.81-55.36,29.94.05,18.31Z" transform="translate(-179.99 -38.97)"/><path class="cls-3" d="M411.82,332.9,265.89,248.47l-3.1-1.79L260,245.05a7.09,7.09,0,0,0-.94,3.29,2.51,2.51,0,0,0,1,2.27h0l0,0h0l147.05,85.08Z" transform="translate(-179.99 -38.97)"/><polygon class="cls-5" points="225.18 319.96 227.01 321.02 227.35 320.44 226.21 319.54 225.18 319.96"/><polygon class="cls-5" points="225.23 295.64 227.11 296.73 226.64 295.7 225.23 295.64"/><path class="cls-2" d="M409.66,327.31l120.92-69.68c7.12-4.1,12.9-.75,12.89,7.46l0,2.71c0,8.21-5.8,18.23-12.92,22.33L409.6,359.8c-2,1.13-3.54.21-3.53-2.05a7.85,7.85,0,0,1,3.54-6.13L530.54,282a12.85,12.85,0,0,0,5.82-10.07l0-2.71c0-3.7-2.6-5.21-5.81-3.36L409.65,335.48c-2,1.13-3.54.21-3.54-2.05A7.8,7.8,0,0,1,409.66,327.31Z" transform="translate(-179.99 -38.97)"/><path class="cls-5" d="M406.07,357.75a7.85,7.85,0,0,1,3.54-6.13L530.54,282a12.85,12.85,0,0,0,5.82-10.07l0-2.71c0-2.42-1.12-3.9-2.79-4.11a4.83,4.83,0,0,1,.85,3l0,2.71a12.89,12.89,0,0,1-5.83,10.07L407.67,350.5a7.83,7.83,0,0,0-3.54,6.13c0,1.71.91,2.65,2.2,2.51A3.38,3.38,0,0,1,406.07,357.75Z" transform="translate(-179.99 -38.97)"/><path class="cls-5" d="M406.11,333.43a7.8,7.8,0,0,1,3.55-6.12l120.92-69.68c3.07-1.76,5.88-2.14,8.1-1.35-2.37-2-6-2.1-10,.23L407.72,326.19a7.83,7.83,0,0,0-3.55,6.12c0,1.71.91,2.65,2.21,2.51A3.37,3.37,0,0,1,406.11,333.43Z" transform="translate(-179.99 -38.97)"/><path class="cls-6" d="M544.53,131.86,414.06,56.53a5.27,5.27,0,0,0-4.42-.54v0l-.23.09-.06,0-4.72,1.8L408.87,60a2,2,0,0,0-.06.23l-21.26,96.74c-1.06,4.84,1.07,10.49,4.76,12.62l127.33,73.52-.45,5.4,5.15-2a7.21,7.21,0,0,0,3.69-5.25l21.26-96.74C550.35,139.64,548.22,134,544.53,131.86Z" transform="translate(-179.99 -38.97)"/><path class="cls-7" d="M544.53,131.86,414.06,56.53a5.27,5.27,0,0,0-4.42-.54v0l-.23.09-.06,0-4.72,1.8L408.87,60a2,2,0,0,0-.06.23L394.8,124l63.84,49.73,90-36.62A10.1,10.1,0,0,0,544.53,131.86Z" transform="translate(-179.99 -38.97)"/><path class="cls-8" d="M539.61,146.73l9.93-4.23a12.47,12.47,0,0,0-4-9.95l-15.72,6.62Z" transform="translate(-179.99 -38.97)"/><path class="cls-9" d="M514.66,248,384.19,172.63c-3.69-2.14-5.82-7.79-4.76-12.63l21.25-96.74c1.06-4.84,4.92-7,8.61-4.9l130.47,75.32c3.69,2.14,5.82,7.79,4.76,12.63l-21.25,96.74C522.2,247.89,518.35,250.08,514.66,248Z" transform="translate(-179.99 -38.97)"/><path class="cls-5" d="M541,133.23,410.54,57.9a5.16,5.16,0,0,0-5.14-.22,5.33,5.33,0,0,1,3.89.68l130.47,75.32c3.69,2.14,5.82,7.79,4.76,12.63l-21.25,96.74a7.39,7.39,0,0,1-3.47,5.13c2.2-.49,4-2.48,4.72-5.59l21.25-96.74C546.83,141,544.7,135.36,541,133.23Z" transform="translate(-179.99 -38.97)"/><path class="cls-5" d="M511.83,240.76,389.12,170c-3.37-1.95-5.32-7.12-4.35-11.55l19.45-88.53c1-4.43,4.5-6.44,7.87-4.49L534.8,136.19c3.38,1.95,5.33,7.12,4.35,11.55l-19.44,88.53C518.73,240.7,515.21,242.71,511.83,240.76Z" transform="translate(-179.99 -38.97)"/><path class="cls-6" d="M511.83,240.76,389.12,170c-3.37-1.95-5.32-7.12-4.35-11.55l19.45-88.53c1-4.43,4.5-6.44,7.87-4.49L534.8,136.19c3.38,1.95,5.33,7.12,4.35,11.55l-19.44,88.53C518.73,240.7,515.21,242.71,511.83,240.76Z" transform="translate(-179.99 -38.97)"/><path class="cls-10" d="M512.9,240.32,390.19,169.51c-3.37-1.95-5.32-7.12-4.35-11.55l19.45-88.52a6.78,6.78,0,0,1,3.09-4.66c-1.95.5-3.55,2.32-4.16,5.09L384.77,158.4c-1,4.43,1,9.6,4.35,11.55l122.71,70.81a4.74,4.74,0,0,0,4.79.17A4.9,4.9,0,0,1,512.9,240.32Z" transform="translate(-179.99 -38.97)"/><path class="cls-6" d="M516.46,251.23l-17.84-2.35L383.5,182.41c-3.69-2.13-10.14-1.86-14.4.6l-81.58,47.08-10.78-1.42v6.11h0c-.07,1.41.73,2.77,2.47,3.78L409.7,313.89c3.69,2.13,10.13,1.87,14.39-.59L512.94,262c2.39-1.38,3.59-3.17,3.52-4.84h0Z" transform="translate(-179.99 -38.97)"/><path class="cls-7" d="M430,209.23l-8.18-4.72H331.85l-44.33,25.58-10.78-1.42v6.11h0c-.07,1.41.73,2.77,2.47,3.78L409.7,313.89a13.49,13.49,0,0,0,7.43,1.4Z" transform="translate(-179.99 -38.97)"/><path class="cls-10" d="M281.52,229.3l-4.78-.63v6.11h0c-.07,1.41.73,2.77,2.47,3.78l2.3,1.32Z" transform="translate(-179.99 -38.97)"/><path class="cls-8" d="M411,314.5a16.67,16.67,0,0,0,12.23-.76V300.1H411Z" transform="translate(-179.99 -38.97)"/><path class="cls-9" d="M409.7,307.78,279.22,232.45c-3.69-2.13-3.22-5.85,1-8.31l88.84-51.28c4.26-2.46,10.71-2.72,14.4-.59L514,247.6c3.69,2.13,3.23,5.85-1,8.31l-88.85,51.28C419.83,309.65,413.39,309.91,409.7,307.78Z" transform="translate(-179.99 -38.97)"/><path class="cls-5" d="M512.94,253.67,424.09,305c-4.26,2.46-10.7,2.73-14.39.6L279.22,230.22a4.85,4.85,0,0,1-2.29-2.51c-.58,1.74.16,3.51,2.29,4.74L409.7,307.78c3.69,2.13,10.13,1.87,14.39-.59l88.85-51.28c2.86-1.65,4-3.88,3.33-5.8A7,7,0,0,1,512.94,253.67Z" transform="translate(-179.99 -38.97)"/><path class="cls-10" d="M334.71,207.52l-5.9-3.41c-.47-.28-.41-.75.13-1.07l7-4a2.06,2.06,0,0,1,1.85-.08l5.9,3.41c.48.27.42.75-.13,1.07l-7,4A2.06,2.06,0,0,1,334.71,207.52Z" transform="translate(-179.99 -38.97)"/><path class="cls-10" d="M343.83,212.78l-5.9-3.41c-.48-.27-.42-.75.13-1.07l7-4a2.06,2.06,0,0,1,1.85-.08l5.9,3.41c.48.28.42.75-.13,1.07l-7,4A2.06,2.06,0,0,1,343.83,212.78Z" transform="translate(-179.99 -38.97)"/><path class="cls-10" d="M353,218,347,214.63c-.47-.27-.41-.75.14-1.06l7-4a2,2,0,0,1,1.84-.07l5.91,3.41c.47.27.41.75-.14,1.06l-7,4A2.05,2.05,0,0,1,353,218Z" transform="translate(-179.99 -38.97)"/><path class="cls-10" d="M365.56,213.7l-5.91-3.41c-.47-.28-.41-.75.14-1.07l5.85-3.38a2,2,0,0,1,1.84-.07l5.91,3.4c.47.28.41.76-.14,1.07l-5.84,3.38A2.06,2.06,0,0,1,365.56,213.7Z" transform="translate(-179.99 -38.97)"/><path class="cls-10" d="M374.67,219l-5.9-3.41c-.47-.27-.41-.75.13-1.07l5.85-3.37a2.06,2.06,0,0,1,1.85-.08l5.9,3.41c.48.27.42.75-.13,1.07l-5.85,3.37A2.06,2.06,0,0,1,374.67,219Z" transform="translate(-179.99 -38.97)"/><path class="cls-10" d="M383.79,224.22l-5.9-3.41c-.48-.27-.42-.75.13-1.06l5.85-3.38a2.06,2.06,0,0,1,1.85-.08l5.9,3.41c.47.28.42.75-.13,1.07l-5.85,3.38A2.05,2.05,0,0,1,383.79,224.22Z" transform="translate(-179.99 -38.97)"/><path class="cls-10" d="M392.91,229.49,387,226.08c-.47-.28-.41-.75.14-1.07l5.84-3.38a2.05,2.05,0,0,1,1.85-.07l5.91,3.4c.47.28.41.76-.14,1.07l-5.84,3.38A2.06,2.06,0,0,1,392.91,229.49Z" transform="translate(-179.99 -38.97)"/><path class="cls-10" d="M402,234.75l-5.9-3.41c-.47-.27-.42-.75.13-1.07l5.85-3.37a2.06,2.06,0,0,1,1.85-.08l5.9,3.41c.48.27.42.75-.13,1.07l-5.85,3.37A2.06,2.06,0,0,1,402,234.75Z" transform="translate(-179.99 -38.97)"/><path class="cls-10" d="M411.14,240l-5.9-3.41c-.48-.27-.42-.75.13-1.06l5.85-3.38a2.06,2.06,0,0,1,1.85-.08l5.9,3.41c.47.28.41.75-.13,1.07L413,239.94A2.05,2.05,0,0,1,411.14,240Z" transform="translate(-179.99 -38.97)"/><path class="cls-10" d="M420.26,245.28l-5.91-3.41c-.47-.28-.41-.75.14-1.07l5.84-3.38a2.05,2.05,0,0,1,1.85-.07l5.91,3.41c.47.27.41.75-.14,1.06l-5.85,3.38A2,2,0,0,1,420.26,245.28Z" transform="translate(-179.99 -38.97)"/><path class="cls-10" d="M429.37,250.54l-5.9-3.41c-.48-.27-.42-.75.13-1.07l5.85-3.37a2.06,2.06,0,0,1,1.85-.08l5.9,3.41c.48.27.42.75-.13,1.07l-5.85,3.37A2.06,2.06,0,0,1,429.37,250.54Z" transform="translate(-179.99 -38.97)"/><path class="cls-10" d="M438.49,255.8l-5.9-3.4c-.48-.28-.42-.76.13-1.07l5.85-3.38a2.06,2.06,0,0,1,1.85-.08l5.9,3.41c.47.28.41.75-.13,1.07l-5.85,3.38A2.05,2.05,0,0,1,438.49,255.8Z" transform="translate(-179.99 -38.97)"/><path class="cls-10" d="M447.61,261.07l-5.91-3.41c-.47-.27-.41-.75.13-1.07l5.85-3.38a2.05,2.05,0,0,1,1.85-.07l5.91,3.41c.47.27.41.75-.14,1.06L449.45,261A2,2,0,0,1,447.61,261.07Z" transform="translate(-179.99 -38.97)"/><path class="cls-10" d="M379,211.2l-5.9-3.4c-.48-.28-.42-.76.13-1.07l5.85-3.38a2.09,2.09,0,0,1,1.85-.08l5.9,3.41c.47.28.41.75-.13,1.07l-5.85,3.38A2.05,2.05,0,0,1,379,211.2Z" transform="translate(-179.99 -38.97)"/><path class="cls-10" d="M369.74,205.86l-5.91-3.41c-.47-.27-.41-.75.14-1.06l5.85-3.38a2,2,0,0,1,1.84-.08l5.91,3.41c.47.27.41.75-.14,1.07l-5.84,3.38A2.05,2.05,0,0,1,369.74,205.86Z" transform="translate(-179.99 -38.97)"/><path class="cls-10" d="M360.47,200.51l-12.72-7.34c-.47-.27-.41-.75.14-1.07l5.85-3.37a2.06,2.06,0,0,1,1.85-.08L368.3,196c.47.27.41.75-.13,1.07l-5.85,3.37A2.06,2.06,0,0,1,360.47,200.51Z" transform="translate(-179.99 -38.97)"/><path class="cls-10" d="M367,194l-10.32-5.95c-.48-.28-.42-.75.13-1.07l5.85-3.38a2.05,2.05,0,0,1,1.85-.07l10.32,5.95c.47.28.41.75-.13,1.07l-5.85,3.38A2.05,2.05,0,0,1,367,194Z" transform="translate(-179.99 -38.97)"/><path class="cls-10" d="M388.11,216.47l-5.91-3.41c-.47-.27-.41-.75.13-1.07l5.85-3.38a2.05,2.05,0,0,1,1.85-.07l5.91,3.41c.47.27.41.75-.14,1.06L390,216.39A2,2,0,0,1,388.11,216.47Z" transform="translate(-179.99 -38.97)"/><path class="cls-10" d="M397.22,221.73l-5.9-3.41c-.48-.27-.42-.75.13-1.06l5.85-3.38a2.06,2.06,0,0,1,1.85-.08l5.9,3.41c.48.27.42.75-.13,1.07l-5.85,3.37A2.06,2.06,0,0,1,397.22,221.73Z" transform="translate(-179.99 -38.97)"/><path class="cls-10" d="M406.34,227l-5.9-3.4c-.48-.28-.42-.76.13-1.07l5.85-3.38a2.09,2.09,0,0,1,1.85-.08l5.9,3.41c.47.28.41.75-.13,1.07l-5.85,3.38A2.05,2.05,0,0,1,406.34,227Z" transform="translate(-179.99 -38.97)"/><path class="cls-10" d="M415.46,232.26l-5.91-3.41c-.47-.27-.41-.75.13-1.07l5.85-3.38a2.05,2.05,0,0,1,1.85-.07l5.91,3.41c.47.27.41.75-.14,1.06l-5.85,3.38A2,2,0,0,1,415.46,232.26Z" transform="translate(-179.99 -38.97)"/><path class="cls-10" d="M424.57,237.52l-5.9-3.41c-.48-.27-.42-.75.13-1.06l5.85-3.38a2.06,2.06,0,0,1,1.85-.08l5.9,3.41c.48.27.42.75-.13,1.07l-5.85,3.37A2.06,2.06,0,0,1,424.57,237.52Z" transform="translate(-179.99 -38.97)"/><path class="cls-10" d="M433.69,242.78l-5.91-3.4c-.47-.28-.41-.76.14-1.07l5.85-3.38a2.09,2.09,0,0,1,1.85-.08l5.9,3.41c.47.28.41.75-.13,1.07l-5.85,3.38A2.05,2.05,0,0,1,433.69,242.78Z" transform="translate(-179.99 -38.97)"/><path class="cls-10" d="M442.8,248.05l-5.9-3.41c-.47-.27-.41-.75.13-1.07l5.85-3.37a2,2,0,0,1,1.85-.08l5.91,3.41c.47.27.41.75-.14,1.06L444.65,248A2.06,2.06,0,0,1,442.8,248.05Z" transform="translate(-179.99 -38.97)"/><path class="cls-10" d="M451.92,253.31,446,249.9c-.48-.27-.42-.75.13-1.06l5.85-3.38a2.06,2.06,0,0,1,1.85-.08l5.9,3.41c.48.27.42.75-.13,1.07l-5.85,3.37A2,2,0,0,1,451.92,253.31Z" transform="translate(-179.99 -38.97)"/><path class="cls-10" d="M461,258.58l-5.91-3.41c-.47-.28-.41-.75.14-1.07l5.85-3.38a2.05,2.05,0,0,1,1.85-.07l5.9,3.4c.47.28.41.76-.13,1.07l-5.85,3.38A2.09,2.09,0,0,1,461,258.58Z" transform="translate(-179.99 -38.97)"/><path class="cls-10" d="M477.25,267.93l-12.89-7.43c-.47-.28-.41-.76.14-1.07l5.85-3.38a2.06,2.06,0,0,1,1.85-.08l12.88,7.44c.47.27.41.75-.14,1.07l-5.85,3.38A2,2,0,0,1,477.25,267.93Z" transform="translate(-179.99 -38.97)"/><path class="cls-10" d="M495,257.68l-10.87-6.27c-.47-.28-.41-.75.13-1.07L490.1,247a2.05,2.05,0,0,1,1.85-.07l10.88,6.27c.47.28.41.76-.14,1.07l-5.85,3.38A2.05,2.05,0,0,1,495,257.68Z" transform="translate(-179.99 -38.97)"/><path class="cls-10" d="M404.07,215.44l-5.9-3.41c-.48-.27-.42-.75.13-1.07l5.85-3.38a2.05,2.05,0,0,1,1.85-.07l5.9,3.41c.48.27.42.75-.13,1.06l-5.85,3.38A2.06,2.06,0,0,1,404.07,215.44Z" transform="translate(-179.99 -38.97)"/><path class="cls-10" d="M394.73,210l-5.91-3.4c-.47-.28-.41-.76.14-1.07l5.85-3.38a2.06,2.06,0,0,1,1.85-.08l5.9,3.41c.47.28.41.75-.13,1.07L396.58,210A2.05,2.05,0,0,1,394.73,210Z" transform="translate(-179.99 -38.97)"/><path class="cls-10" d="M385.38,204.65l-5.9-3.41c-.47-.27-.41-.75.13-1.07l5.85-3.37a2.06,2.06,0,0,1,1.85-.08l5.91,3.41c.47.27.41.75-.14,1.07l-5.85,3.37A2.06,2.06,0,0,1,385.38,204.65Z" transform="translate(-179.99 -38.97)"/><path class="cls-10" d="M376,199.25l-5.9-3.4c-.48-.28-.42-.76.13-1.07l5.85-3.38a2.09,2.09,0,0,1,1.85-.08l5.9,3.41c.48.28.42.75-.13,1.07l-5.85,3.38A2.05,2.05,0,0,1,376,199.25Z" transform="translate(-179.99 -38.97)"/><path class="cls-10" d="M413.19,220.7l-5.91-3.41c-.47-.27-.41-.75.14-1.06l5.85-3.38a2.06,2.06,0,0,1,1.85-.08l5.9,3.41c.47.27.41.75-.13,1.07L415,220.62A2.06,2.06,0,0,1,413.19,220.7Z" transform="translate(-179.99 -38.97)"/><path class="cls-10" d="M422.3,226l-5.9-3.4c-.47-.28-.41-.76.13-1.07l5.85-3.38a2.09,2.09,0,0,1,1.85-.08l5.9,3.41c.48.28.42.75-.13,1.07l-5.85,3.38A2.05,2.05,0,0,1,422.3,226Z" transform="translate(-179.99 -38.97)"/><path class="cls-10" d="M431.42,231.23l-5.9-3.41c-.48-.27-.42-.75.13-1.07l5.85-3.37a2,2,0,0,1,1.85-.08l5.9,3.41c.48.27.42.75-.13,1.06l-5.85,3.38A2.06,2.06,0,0,1,431.42,231.23Z" transform="translate(-179.99 -38.97)"/><path class="cls-10" d="M440.54,236.49l-5.91-3.41c-.47-.27-.41-.75.14-1.06l5.85-3.38a2,2,0,0,1,1.84-.08l5.91,3.41c.47.27.41.75-.13,1.07l-5.85,3.37A2,2,0,0,1,440.54,236.49Z" transform="translate(-179.99 -38.97)"/><path class="cls-10" d="M449.65,241.75l-5.9-3.4c-.47-.28-.41-.76.13-1.07l5.85-3.38a2.05,2.05,0,0,1,1.85-.07l5.9,3.4c.48.28.42.76-.13,1.07l-5.85,3.38A2.05,2.05,0,0,1,449.65,241.75Z" transform="translate(-179.99 -38.97)"/><path class="cls-10" d="M458.77,247l-5.9-3.41c-.48-.27-.42-.75.13-1.07l5.85-3.37a2,2,0,0,1,1.85-.08l5.9,3.41c.48.27.42.75-.13,1.06l-5.85,3.38A2.06,2.06,0,0,1,458.77,247Z" transform="translate(-179.99 -38.97)"/><path class="cls-10" d="M467.89,252.28,462,248.87c-.47-.27-.41-.75.14-1.06l5.85-3.38a2,2,0,0,1,1.84-.08l5.91,3.41c.47.27.41.75-.14,1.07l-5.84,3.38A2.05,2.05,0,0,1,467.89,252.28Z" transform="translate(-179.99 -38.97)"/><path class="cls-10" d="M477,257.55l-5.9-3.41c-.47-.28-.42-.75.13-1.07l5.85-3.38a2.05,2.05,0,0,1,1.85-.07l5.9,3.4c.48.28.42.76-.13,1.07l-5.85,3.38A2.09,2.09,0,0,1,477,257.55Z" transform="translate(-179.99 -38.97)"/><path class="cls-10" d="M486.12,262.81l-5.9-3.41c-.48-.27-.42-.75.13-1.07L486.2,255a2.06,2.06,0,0,1,1.85-.08l5.9,3.41c.47.27.42.75-.13,1.06L488,262.73A2.06,2.06,0,0,1,486.12,262.81Z" transform="translate(-179.99 -38.97)"/><path class="cls-10" d="M399.27,202.42l-5.9-3.41c-.48-.27-.42-.75.13-1.07l5.85-3.37a2.06,2.06,0,0,1,1.85-.08l5.9,3.41c.48.27.42.75-.13,1.07l-5.85,3.37A2.06,2.06,0,0,1,399.27,202.42Z" transform="translate(-179.99 -38.97)"/><path class="cls-10" d="M390.2,197.18l-5.9-3.41c-.48-.27-.42-.75.13-1.06l5.85-3.38a2.06,2.06,0,0,1,1.85-.08l5.9,3.41c.47.27.41.75-.13,1.07l-5.85,3.37A2,2,0,0,1,390.2,197.18Z" transform="translate(-179.99 -38.97)"/><path class="cls-10" d="M381.13,191.94l-5.91-3.4c-.47-.28-.41-.76.14-1.07l5.85-3.38a2.09,2.09,0,0,1,1.85-.08l5.9,3.41c.47.28.41.75-.13,1.07L383,191.87A2.05,2.05,0,0,1,381.13,191.94Z" transform="translate(-179.99 -38.97)"/><path class="cls-10" d="M372.06,186.71l-5.91-3.41c-.47-.27-.41-.75.14-1.07l5.85-3.38a2,2,0,0,1,1.84-.07l5.91,3.41c.47.27.41.75-.13,1.06l-5.85,3.38A2.06,2.06,0,0,1,372.06,186.71Z" transform="translate(-179.99 -38.97)"/><path class="cls-10" d="M381.38,181.32l-5.9-3.41c-.47-.27-.41-.75.13-1.06l1.94-1.12a2.06,2.06,0,0,1,1.85-.08l5.9,3.41c.47.27.41.75-.13,1.07l-1.94,1.11A2,2,0,0,1,381.38,181.32Z" transform="translate(-179.99 -38.97)"/><path class="cls-10" d="M393.22,188.16l-5.9-3.41c-.47-.28-.42-.75.13-1.07l1.94-1.12a2,2,0,0,1,1.84-.07l5.91,3.41c.47.27.41.75-.13,1.06l-1.94,1.12A2.06,2.06,0,0,1,393.22,188.16Z" transform="translate(-179.99 -38.97)"/><path class="cls-10" d="M402.26,193.37,396.35,190c-.47-.27-.41-.75.14-1.06l1.93-1.12a2.06,2.06,0,0,1,1.85-.08l5.9,3.41c.48.27.42.75-.13,1.07l-1.93,1.12A2.05,2.05,0,0,1,402.26,193.37Z" transform="translate(-179.99 -38.97)"/><path class="cls-10" d="M411.29,198.59l-5.9-3.41c-.48-.27-.42-.75.13-1.07l1.93-1.12a2.05,2.05,0,0,1,1.85-.07l5.9,3.41c.48.27.42.75-.13,1.06l-1.93,1.12A2.06,2.06,0,0,1,411.29,198.59Z" transform="translate(-179.99 -38.97)"/><path class="cls-10" d="M420.32,203.8l-5.9-3.41c-.47-.27-.42-.75.13-1.06l1.94-1.12a2,2,0,0,1,1.84-.08l5.91,3.41c.47.28.41.75-.13,1.07l-1.94,1.12A2.05,2.05,0,0,1,420.32,203.8Z" transform="translate(-179.99 -38.97)"/><path class="cls-10" d="M470.75,232.92l-5.9-3.41c-.47-.27-.41-.75.13-1.07l1.94-1.11a2.06,2.06,0,0,1,1.85-.08l5.9,3.41c.47.27.41.75-.13,1.07l-1.94,1.11A2.06,2.06,0,0,1,470.75,232.92Z" transform="translate(-179.99 -38.97)"/><path class="cls-10" d="M479.79,238.13l-5.91-3.4c-.47-.28-.41-.76.14-1.07l1.93-1.12a2.05,2.05,0,0,1,1.85-.07l5.9,3.4c.48.28.42.76-.13,1.07l-1.93,1.12A2.05,2.05,0,0,1,479.79,238.13Z" transform="translate(-179.99 -38.97)"/><path class="cls-10" d="M488.82,243.35l-5.9-3.41c-.48-.27-.42-.75.13-1.07l1.93-1.11a2.06,2.06,0,0,1,1.85-.08l5.91,3.41c.47.27.41.75-.14,1.07l-1.93,1.11A2.06,2.06,0,0,1,488.82,243.35Z" transform="translate(-179.99 -38.97)"/><path class="cls-10" d="M497.85,248.57l-5.9-3.41c-.47-.28-.41-.75.13-1.07L494,243a2.05,2.05,0,0,1,1.85-.07l5.9,3.41c.47.27.41.75-.13,1.06l-1.94,1.12A2.06,2.06,0,0,1,497.85,248.57Z" transform="translate(-179.99 -38.97)"/><path class="cls-10" d="M408.39,207.68l-5.91-3.41c-.47-.27-.41-.75.14-1.06l5.85-3.38a2,2,0,0,1,1.84-.08l5.91,3.41c.47.27.41.75-.13,1.07l-5.85,3.38A2.05,2.05,0,0,1,408.39,207.68Z" transform="translate(-179.99 -38.97)"/><path class="cls-10" d="M417.5,213l-5.9-3.41c-.47-.28-.41-.75.13-1.07l5.85-3.38a2.05,2.05,0,0,1,1.85-.07l5.9,3.4c.48.28.42.76-.13,1.07l-5.85,3.38A2.06,2.06,0,0,1,417.5,213Z" transform="translate(-179.99 -38.97)"/><path class="cls-10" d="M426.62,218.21l-5.9-3.41c-.48-.27-.42-.75.13-1.07l5.85-3.37a2.06,2.06,0,0,1,1.85-.08l5.9,3.41c.47.27.42.75-.13,1.07l-5.85,3.37A2.06,2.06,0,0,1,426.62,218.21Z" transform="translate(-179.99 -38.97)"/><path class="cls-10" d="M435.74,223.47l-5.91-3.41c-.47-.27-.41-.75.14-1.06l5.84-3.38a2.06,2.06,0,0,1,1.85-.08l5.91,3.41c.47.27.41.75-.14,1.07l-5.84,3.38A2.05,2.05,0,0,1,435.74,223.47Z" transform="translate(-179.99 -38.97)"/><path class="cls-10" d="M444.85,228.74l-5.9-3.41c-.47-.28-.42-.75.13-1.07l5.85-3.38a2.05,2.05,0,0,1,1.85-.07l5.9,3.4c.48.28.42.76-.13,1.07l-5.85,3.38A2.06,2.06,0,0,1,444.85,228.74Z" transform="translate(-179.99 -38.97)"/><path class="cls-10" d="M454,234l-5.9-3.41c-.48-.27-.42-.75.13-1.07l5.85-3.37a2.06,2.06,0,0,1,1.85-.08l5.9,3.41c.47.27.42.75-.13,1.07l-5.85,3.37A2.06,2.06,0,0,1,454,234Z" transform="translate(-179.99 -38.97)"/><path class="cls-10" d="M463.09,239.26l-5.91-3.41c-.47-.27-.41-.75.14-1.06l5.84-3.38a2.06,2.06,0,0,1,1.85-.08l5.91,3.41c.47.28.41.75-.14,1.07l-5.84,3.38A2.05,2.05,0,0,1,463.09,239.26Z" transform="translate(-179.99 -38.97)"/><path class="cls-10" d="M472.2,244.53l-5.9-3.41c-.47-.28-.42-.75.13-1.07l5.85-3.38a2.05,2.05,0,0,1,1.85-.07L480,240c.48.27.42.75-.13,1.06l-5.85,3.38A2.06,2.06,0,0,1,472.2,244.53Z" transform="translate(-179.99 -38.97)"/><path class="cls-10" d="M481.32,249.79l-5.9-3.41c-.48-.27-.42-.75.13-1.07l5.85-3.37a2.06,2.06,0,0,1,1.85-.08l5.9,3.41c.47.27.41.75-.13,1.07l-5.85,3.37A2.06,2.06,0,0,1,481.32,249.79Z" transform="translate(-179.99 -38.97)"/><path class="cls-10" d="M356.27,208.33l-17.39-10c-.47-.27-.41-.75.13-1.06l5.85-3.38a2.06,2.06,0,0,1,1.85-.08l17.39,10c.47.27.41.75-.14,1.07l-5.84,3.38A2.05,2.05,0,0,1,356.27,208.33Z" transform="translate(-179.99 -38.97)"/><path class="cls-10" d="M468.26,273l-17.38-10c-.48-.28-.42-.75.13-1.07l5.85-3.38a2.05,2.05,0,0,1,1.85-.07l17.39,10c.47.28.41.75-.14,1.07l-5.85,3.38A2.05,2.05,0,0,1,468.26,273Z" transform="translate(-179.99 -38.97)"/><path class="cls-10" d="M431.81,263.57l-5.91-3.41c-.47-.27-.41-.75.14-1.06l7-4a2.05,2.05,0,0,1,1.85-.07l5.91,3.4c.47.28.41.76-.14,1.07l-7,4A2.05,2.05,0,0,1,431.81,263.57Z" transform="translate(-179.99 -38.97)"/><path class="cls-10" d="M365.6,225.35l-9.44-5.45c-.47-.28-.41-.75.13-1.07l7-4a2.06,2.06,0,0,1,1.85-.08l9.44,5.45c.48.28.42.75-.13,1.07l-7,4A2.06,2.06,0,0,1,365.6,225.35Z" transform="translate(-179.99 -38.97)"/><path class="cls-10" d="M423,258.5l-9.44-5.45c-.47-.27-.41-.75.13-1.07l7-4a2.06,2.06,0,0,1,1.85-.08l9.44,5.45c.48.28.42.75-.13,1.07l-7,4A2.06,2.06,0,0,1,423,258.5Z" transform="translate(-179.99 -38.97)"/><path class="cls-10" d="M378.76,232.94l-9.45-5.45c-.47-.27-.41-.75.14-1.07l7-4a2.09,2.09,0,0,1,1.85-.08l9.45,5.46c.47.27.41.75-.14,1.06l-7,4A2,2,0,0,1,378.76,232.94Z" transform="translate(-179.99 -38.97)"/><path class="cls-10" d="M378.33,222.36l41.05,23.7a.57.57,0,0,1,0,1.07l-7.11,4.1a2.05,2.05,0,0,1-1.84,0l-41.05-23.7Z" transform="translate(-179.99 -38.97)"/><path class="cls-10" d="M457.29,273.12l6.57,3.79c.39.23.34.62-.11.88l-2.85,1.64a1.68,1.68,0,0,1-1.51.07l-6.58-3.8c-.39-.23-.34-.62.11-.88l2.85-1.64A1.67,1.67,0,0,1,457.29,273.12Z" transform="translate(-179.99 -38.97)"/><path class="cls-10" d="M448.09,267.81l6.58,3.79c.39.23.34.62-.11.88l-2.85,1.65a1.74,1.74,0,0,1-1.52.06l-6.57-3.8c-.39-.22-.34-.61.11-.87l2.85-1.65A1.65,1.65,0,0,1,448.09,267.81Z" transform="translate(-179.99 -38.97)"/><path class="cls-10" d="M439,262.54l6.57,3.8c.39.23.34.62-.11.88l-2.85,1.64a1.65,1.65,0,0,1-1.51.06l-6.58-3.79c-.39-.23-.34-.62.11-.88l2.85-1.64A1.71,1.71,0,0,1,439,262.54Z" transform="translate(-179.99 -38.97)"/><path class="cls-10" d="M453.13,264.9l6.57,3.8c.39.22.34.61-.11.87l-2.85,1.65a1.65,1.65,0,0,1-1.51.06l-6.58-3.79c-.39-.23-.34-.62.11-.88l2.85-1.65A1.74,1.74,0,0,1,453.13,264.9Z" transform="translate(-179.99 -38.97)"/><polygon class="cls-9" points="309.15 123.23 260.05 94.88 260.68 91.69 309.78 120.04 309.15 123.23"/><polygon class="cls-9" points="291.56 128.62 257.29 108.83 257.92 105.64 292.2 125.43 291.56 128.62"/><polygon class="cls-5" points="288.32 118.97 258.67 101.85 259.3 98.66 288.95 115.78 288.32 118.97"/><polygon class="cls-2" points="307.77 130.21 292.94 121.64 293.58 118.45 308.4 127.01 307.77 130.21"/><polygon class="cls-9" points="254.82 67.03 239.99 58.47 240.62 55.27 255.45 63.84 254.82 67.03"/><polygon class="cls-5" points="253.21 74.45 238.38 65.89 239.01 62.69 253.84 71.25 253.21 74.45"/><polygon class="cls-9" points="325.98 177.35 311.15 168.79 311.79 165.6 326.62 174.16 325.98 177.35"/><polygon class="cls-9" points="249.99 89.28 235.16 80.72 235.79 77.53 250.62 86.09 249.99 89.28"/><path class="cls-2" d="M462,130.55a1.84,1.84,0,0,1-2.66.82,2.32,2.32,0,0,1-1-2.91,1.85,1.85,0,0,1,2.67-.82A2.31,2.31,0,0,1,462,130.55Z" transform="translate(-179.99 -38.97)"/><path class="cls-5" d="M468.4,134.24a1.86,1.86,0,0,1-2.67.82,2.32,2.32,0,0,1-1-2.91,1.85,1.85,0,0,1,2.67-.82A2.32,2.32,0,0,1,468.4,134.24Z" transform="translate(-179.99 -38.97)"/><path class="cls-9" d="M474.79,137.92a1.85,1.85,0,0,1-2.67.82,2.31,2.31,0,0,1-.95-2.91,1.85,1.85,0,0,1,2.66-.82A2.32,2.32,0,0,1,474.79,137.92Z" transform="translate(-179.99 -38.97)"/><path class="cls-2" d="M481.17,141.61a1.84,1.84,0,0,1-2.66.82,2.32,2.32,0,0,1-1-2.91,1.85,1.85,0,0,1,2.67-.82A2.31,2.31,0,0,1,481.17,141.61Z" transform="translate(-179.99 -38.97)"/><path class="cls-1" d="M545.65,345.37a8,8,0,0,0-7.19,0l-92.74,53.57c-2,1.14-2,3,0,4.15a8,8,0,0,0,7.19,0l92.74-53.56C547.64,348.38,547.64,346.52,545.65,345.37Z" transform="translate(-179.99 -38.97)"/><path class="cls-9" d="M561.5,316.36h0a.41.41,0,0,0-.44-.19l-5.61,1.22,2.21,3.75,3.79-4.31A.39.39,0,0,0,561.5,316.36Z" transform="translate(-179.99 -38.97)"/><path class="cls-10" d="M559.29,319.13a2.83,2.83,0,0,0-1.29-2.19.94.94,0,0,0-.84-.1,35.83,35.83,0,0,0-18.45,4.94l-.4.24,7,11.85,2.06-1.36a35.9,35.9,0,0,0,10.76-11.15l.88-1.44A.93.93,0,0,0,559.29,319.13Z" transform="translate(-179.99 -38.97)"/><path class="cls-9" d="M546.67,330.71a10.74,10.74,0,0,0-4.92-8.38c-2.7-1.53-4.87-.25-4.84,2.85a10.74,10.74,0,0,0,4.92,8.38C544.53,335.09,546.7,333.81,546.67,330.71Z" transform="translate(-179.99 -38.97)"/><polygon class="cls-9" points="323.93 320.67 365.29 294.9 358.32 283.05 315.7 306.66 323.93 320.67"/><path class="cls-9" d="M505.57,355.9a12.67,12.67,0,0,0-5.82-9.9c-3.18-1.81-5.74-.3-5.72,3.36a12.69,12.69,0,0,0,5.83,9.9C503,361.07,505.6,359.57,505.57,355.9Z" transform="translate(-179.99 -38.97)"/><path class="cls-9" d="M503.22,357.29a12.69,12.69,0,0,0-5.83-9.9c-3.18-1.81-5.74-.31-5.72,3.36a12.7,12.7,0,0,0,5.83,9.9C500.68,362.46,503.24,361,503.22,357.29Z" transform="translate(-179.99 -38.97)"/><rect class="cls-9" x="438.36" y="361.97" width="63.46" height="16.25" transform="translate(-302.7 250.28) rotate(-30.45)"/><path class="cls-9" d="M448.5,389.45a12.68,12.68,0,0,0-5.82-9.91c-3.18-1.8-5.74-.3-5.72,3.37a12.7,12.7,0,0,0,5.83,9.9C446,394.62,448.53,393.11,448.5,389.45Z" transform="translate(-179.99 -38.97)"/><path class="cls-7" d="M446.44,388.28a8.43,8.43,0,0,0-3.93-6c-2.05-1.16-3.61-.35-3.48,1.82a8.41,8.41,0,0,0,3.93,6C445,391.25,446.57,390.44,446.44,388.28Z" transform="translate(-179.99 -38.97)"/><path class="cls-5" d="M506,355.66a12.74,12.74,0,0,0-5.82-9.91,4.49,4.49,0,0,0-3.42-.63c1-1.09,2.74-1.21,4.67-.12a12.72,12.72,0,0,1,5.82,9.91c0,2.18-.89,3.59-2.31,4A4.53,4.53,0,0,0,506,355.66Z" transform="translate(-179.99 -38.97)"/><path class="cls-10" d="M506,355.66a12.71,12.71,0,0,0-5.82-9.91,4.07,4.07,0,0,0-4.07-.37l-3.1,1.83,1.48,2.51a13,13,0,0,0,5.28,9l1.48,2.51,3.1-1.82h0C505.37,358.78,506,357.49,506,355.66Z" transform="translate(-179.99 -38.97)"/><path class="cls-9" d="M502.89,357.48a12.68,12.68,0,0,0-5.82-9.9c-3.19-1.81-5.75-.31-5.72,3.36a12.7,12.7,0,0,0,5.82,9.9C500.36,362.65,502.92,361.14,502.89,357.48Z" transform="translate(-179.99 -38.97)"/><path class="cls-2" d="M443.86,389.9l-3.55-6-11.59,6.82a3.5,3.5,0,0,0-1.25,4.79h0a3.51,3.51,0,0,0,4.8,1.25Z" transform="translate(-179.99 -38.97)"/><path class="cls-2" d="M444.58,388.29a5.48,5.48,0,0,0-2.51-4.27c-1.38-.78-2.48-.13-2.47,1.45a5.48,5.48,0,0,0,2.51,4.27C443.49,390.52,444.59,389.87,444.58,388.29Z" transform="translate(-179.99 -38.97)"/><path class="cls-10" d="M457.47,367l-1.74-1a3.69,3.69,0,0,0-3.72.39l-6,3.51a4.52,4.52,0,0,0-2,3.56l0,3a2.46,2.46,0,0,1-.6,1.5l.22,1.38-1.48-.85h0a.76.76,0,0,1-.35-.72l0-3a9.45,9.45,0,0,1,4.22-7.43l6-3.5c2-1.17,3.87-1.38,5.29-.57l1.74,1a3.72,3.72,0,0,0,3.72-.4l24-14.12a.77.77,0,0,1,.79-.08h0l1.48.85-1.27.49a2.43,2.43,0,0,1-1,1.31l-24,14.12C460.77,367.57,458.89,367.77,457.47,367Z" transform="translate(-179.99 -38.97)"/><path class="cls-10" d="M457.23,366.84a3.69,3.69,0,0,0-3.72.39l-6,3.51a4.54,4.54,0,0,0-2,3.56l0,3a2.49,2.49,0,0,1-1.1,1.93c-.61.36-1.11.08-1.12-.63l0-3a9.47,9.47,0,0,1,4.21-7.43l6-3.5c2-1.17,3.87-1.37,5.29-.57l1.74,1a3.72,3.72,0,0,0,3.72-.4l24-14.12c.61-.36,1.11-.08,1.12.63a2.46,2.46,0,0,1-1.1,1.94l-24,14.12c-2,1.17-3.87,1.37-5.29.56Z" transform="translate(-179.99 -38.97)"/><path class="cls-5" d="M445.46,374.79l0,3s0,0,0,.06a1.86,1.86,0,0,0,.09-.55l0-3c0-.08,0-.17,0-.26A3.33,3.33,0,0,0,445.46,374.79Z" transform="translate(-179.99 -38.97)"/><path class="cls-1" d="M225.31,336.34a11.89,11.89,0,0,0,1.45,3.07c-7.61,6.41-6.49,15.24,3.37,20.93,11.14,6.43,29.2,6.43,40.33,0,8.22-4.74,10.37-11.65,6.47-17.53a16.41,16.41,0,0,0,2.78-3c7.1,6.89,6.31,15.74-2.36,22.2l9.24,5.41c3.49-1.25,7.79-1.16,10.44.37l33.59,19.39c3.17,1.84,2.78,5-.89,7.16s-9.22,2.35-12.4.52l-33.59-19.39c-2.41-1.4-2.76-3.58-1.18-5.47l-9.32-5.46c-13.46,7.06-34.25,6.86-47.24-.64C212.85,356.32,212.63,344.1,225.31,336.34Z" transform="translate(-179.99 -38.97)"/><path class="cls-11" d="M229,318.85c12.14-7,31.82-7,44,0,5,2.9,8,6.56,8.84,10.34-.76,3.34-3.14,6.57-7.15,9.28a25.79,25.79,0,0,0-3.39-2.33c-12.14-7-31.82-7-44,0-.59.35-1.15.71-1.69,1.07a14.87,14.87,0,0,1-5.44-8C221.05,325.41,224,321.75,229,318.85Z" transform="translate(-179.99 -38.97)"/><path class="cls-3" d="M282.56,334.79l-4.74-6.19-14.4-6.69L251,320.81l-14.53,1.78L226.4,327.8,220,331.91l-1.16-6.7,2.18-7.7s5.5-3.65,5.84-4,12.88-4.82,12.88-4.82l12.54-.85,10.08,1.27,10.25,3.05,6.77,4.74,5.09,6.44.57,8Z" transform="translate(-179.99 -38.97)"/><polygon class="cls-3" points="35.33 287.88 35.33 300.9 38.81 295.26 35.33 287.88"/><path class="cls-3" d="M273,327.52c-12.14-7-31.82-7-44,0a19.26,19.26,0,0,0-7.85,7.64c-1.07-1-2.45-1.71-3-3a24.49,24.49,0,0,1,7.61-6.52c13.94-8,36.54-8.05,50.48,0a25.25,25.25,0,0,1,7.15,5.9,10.9,10.9,0,0,1-2.55,3.63A19.31,19.31,0,0,0,273,327.52Z" transform="translate(-179.99 -38.97)"/><path class="cls-11" d="M229,318.85c12.14-7,31.82-7,44,0,5,2.9,8,6.56,8.84,10.34C281,333,278,336.63,273,339.54c-12.14,7-31.82,7-44,0-5-2.91-8-6.57-8.84-10.35C221.05,325.41,224,321.75,229,318.85Z" transform="translate(-179.99 -38.97)"/><path class="cls-3" d="M218.16,332.16a4.22,4.22,0,0,0,1.08,1.41v-.14l3.22,1.92,4,3.67,5.47,2.43,7.57,2.71,6.72,1.58,9.26.4,6-.62,11.86-3.11,7.73-6.83c-.06-.14-.11-.28-.18-.41a10.9,10.9,0,0,0,2.55-3.63c.2.26.4.52.59.79l2.71-5.65v13.53h0c0,5.28-3.47,10.56-10.44,14.58-13.94,8.05-36.54,8.05-50.48,0C215.18,348.67,212.65,339.66,218.16,332.16Z" transform="translate(-179.99 -38.97)"/><path class="cls-2" d="M278.24,338l2.79-2.46c-.06-.14-.11-.28-.18-.41a10.9,10.9,0,0,0,2.55-3.63c.2.26.4.52.59.79l2.71-5.65v13.53h0c0,4.75-2.81,9.49-8.45,13.32Z" transform="translate(-179.99 -38.97)"/><path class="cls-2" d="M225.77,341.42c13.94,8,36.54,8,50.48,0s13.93-21.09,0-29.14-36.54-8-50.48,0S211.83,333.37,225.77,341.42ZM229,314.15c12.14-7,31.82-7,44,0s12.14,18.38,0,25.39-31.82,7-44,0S216.89,321.16,229,314.15Z" transform="translate(-179.99 -38.97)"/><polygon class="cls-9" points="119.6 317.21 99.82 305.7 97.19 309.96 117.06 321.54 119.6 317.21"/><path class="cls-12" d="M296.55,359.37c0,1.13.79,1.59,1.77,1a3.9,3.9,0,0,0,1.77-3.07c0-1.13-.79-1.59-1.77-1A3.9,3.9,0,0,0,296.55,359.37Z" transform="translate(-179.99 -38.97)"/><path class="cls-12" d="M296.55,359.37c0,1.13.79,1.59,1.77,1a3.9,3.9,0,0,0,1.77-3.07c0-1.13-.79-1.59-1.77-1A3.9,3.9,0,0,0,296.55,359.37Z" transform="translate(-179.99 -38.97)"/><path class="cls-9" d="M276.76,347.85c0,1.13.79,1.59,1.77,1a3.93,3.93,0,0,0,1.78-3.08c0-1.13-.8-1.58-1.78-1A3.92,3.92,0,0,0,276.76,347.85Z" transform="translate(-179.99 -38.97)"/><path class="cls-10" d="M286.82,360.2A16.84,16.84,0,0,1,294.45,347c2.15-1.25,4.1-1.33,5.49-.47h0l41.82,24.31-10.93,18.6-41.38-24.09a3.47,3.47,0,0,1-.79-.46l0,0h0A5.68,5.68,0,0,1,286.82,360.2Z" transform="translate(-179.99 -38.97)"/><path class="cls-9" d="M338.73,376l-46.8-27a12.42,12.42,0,0,1,2.52-2c2.15-1.25,4.1-1.33,5.49-.47h0l41.82,24.31Z" transform="translate(-179.99 -38.97)"/><ellipse class="cls-9" cx="336.3" cy="380.12" rx="10.79" ry="6.23" transform="translate(-341.04 442.32) rotate(-60)"/><path class="cls-10" d="M334.86,382.25a5,5,0,1,0,5-5A5,5,0,0,0,334.86,382.25Z" transform="translate(-179.99 -38.97)"/><circle class="cls-5" cx="162.22" cy="341.46" r="1.47"/><path class="cls-5" d="M335.73,371c2.26-1.3,4.28-1.33,5.67-.34-1.35-.63-3.14-.47-5.1.67a16.85,16.85,0,0,0-7.63,13.22c0,2.26.74,3.88,1.95,4.74-1.54-.72-2.52-2.48-2.52-5.07A16.89,16.89,0,0,1,335.73,371Z" transform="translate(-179.99 -38.97)"/><path class="cls-5" d="M229,314.15c12.14-7,31.82-7,44,0,6.32,3.65,9.35,8.48,9.08,13.27-.24-4.41-3.26-8.77-9.08-12.12-12.14-7-31.82-7-44,0-5.82,3.36-8.84,7.72-9.08,12.12C219.68,322.63,222.7,317.8,229,314.15Z" transform="translate(-179.99 -38.97)"/><path class="cls-5" d="M225.77,341.42c13.94,8,36.54,8,50.48,0,6.71-3.87,10.18-8.91,10.43-14,.26,5.46-3.21,11-10.43,15.14-13.94,8.05-36.54,8.05-50.48,0-7.22-4.17-10.69-9.68-10.43-15.14C215.59,332.5,219.06,337.54,225.77,341.42Z" transform="translate(-179.99 -38.97)"/><path class="cls-2" d="M344.53,314.31s-3.74-1.89-6,.92-5.59,9.46-5.69,13.95,3.55,4.19,5.72,3.13S347,322,347.42,320.23s-.45-4.24-1.06-4.72S344.53,314.31,344.53,314.31Z" transform="translate(-179.99 -38.97)"/><path class="cls-9" d="M345.35,313.4l.18,3.89a2.22,2.22,0,0,1-1.1,2,4.32,4.32,0,0,1-2.89.45c-2.83-.46-3.08-1.26-3.28-5.15S345.35,313.4,345.35,313.4Z" transform="translate(-179.99 -38.97)"/><path class="cls-2" d="M330.81,306.84s-3.75-1.89-6.05.92-5.6,9.46-5.7,14,3.56,4.18,5.73,3.12,8.52-10.27,8.9-12.08-.45-4.24-1.06-4.72S330.81,306.84,330.81,306.84Z" transform="translate(-179.99 -38.97)"/><path class="cls-9" d="M331.63,305.93l.17,3.89a2.2,2.2,0,0,1-1.1,2,4.29,4.29,0,0,1-2.89.45c-2.82-.46-3.08-1.26-3.28-5.15S331.63,305.93,331.63,305.93Z" transform="translate(-179.99 -38.97)"/><path class="cls-6" d="M365.08,234.61c-1.1-18.05-19.55,2.66-19.55,2.66l-12.62,12.37-11.37,12.49a11.2,11.2,0,0,0-2.83,9l4.6,35a3.44,3.44,0,0,0,3.45,3,11.32,11.32,0,0,0,1.71-.15,4.28,4.28,0,0,0,3.8-4.54l-.84-32.75,23.87-14.39S366.19,252.67,365.08,234.61Z" transform="translate(-179.99 -38.97)"/><path class="cls-6" d="M378.81,241.49c-1.11-18.05-19.55,2.66-19.55,2.66l-12.63,12.37L335.26,269a11.2,11.2,0,0,0-2.82,9l4.6,35a3.42,3.42,0,0,0,3.45,3,11.19,11.19,0,0,0,1.7-.15,4.28,4.28,0,0,0,3.8-4.54l-.81-31.81L369,264.19S379.92,259.55,378.81,241.49Z" transform="translate(-179.99 -38.97)"/><path class="cls-2" d="M367.9,183.53c14,5.8,13.7,14.06,13.7,14.06s-2.74,30.31-1.8,50.55c.39,8.46-45,9.11-38.19-13.47,8-26.61,5-48.16,8.71-51.41S364.28,182,367.9,183.53Z" transform="translate(-179.99 -38.97)"/><path class="cls-13" d="M372.4,190.86c-.73,2.84-4.45,4.34-8.31,3.34s-6.39-4.1-5.66-6.94,4.45-4.33,8.31-3.34S373.13,188,372.4,190.86Z" transform="translate(-179.99 -38.97)"/><path class="cls-5" d="M366.8,194.26l-2.58,2.8a1.68,1.68,0,0,0-.43,1.34l1.77,15.3a1.67,1.67,0,0,1-.33,1.2l-5.54,7.24a.5.5,0,0,1-.87-.15l-3-9.49a1.73,1.73,0,0,1,0-1.1l5.31-13.89a1.71,1.71,0,0,0,.07-.95l-.78-3.68Z" transform="translate(-179.99 -38.97)"/><path class="cls-5" d="M366.47,195.18a10.32,10.32,0,0,1-2.55-.33,9.34,9.34,0,0,1-4.9-3,5.34,5.34,0,0,1-1.24-4.76c.82-3.19,4.91-4.9,9.12-3.82s7,4.57,6.14,7.76a5.31,5.31,0,0,1-3.38,3.56A8.58,8.58,0,0,1,366.47,195.18Zm-2.13-10.9c-2.59,0-4.76,1.21-5.26,3.15a4,4,0,0,0,1,3.57,8.51,8.51,0,0,0,9.12,2.35,4,4,0,0,0,2.58-2.66h0c.64-2.47-1.69-5.22-5.18-6.12A8.76,8.76,0,0,0,364.34,184.28Z" transform="translate(-179.99 -38.97)"/><path class="cls-13" d="M362.29,182.9a34.67,34.67,0,0,1-.12,5c-.08,1.4,4.8,2.7,6.06,1.44s.76-2.58,1.06-7.32S362.29,182.9,362.29,182.9Z" transform="translate(-179.99 -38.97)"/><path class="cls-14" d="M369.29,182s-1.2,4.4-7.12,6.08l.09-4Z" transform="translate(-179.99 -38.97)"/><circle class="cls-13" cx="362.62" cy="173.54" r="10.76" transform="translate(-75.67 442.61) rotate(-75.59)"/><path class="cls-14" d="M365.09,173.93s-5.92,2.54-10,2.57-3.2-3.41-3.2-3.41l12.19-1.76Z" transform="translate(-179.99 -38.97)"/><path class="cls-9" d="M353.84,174.6s5.16-2.19,9.69-1.28a4.8,4.8,0,0,1,2.74,1.63,1.57,1.57,0,0,0,.83.6c.8.18,2.11-3.15,3.68-3.23s2.6,1,1.32,3.08-.85,4.34-.26,4.67,7.88-4.76,2.37-15.67-20.55-4.73-22.73-2.52c0,0-2.29,2-4.16.22C347.32,162.1,345.23,177.76,353.84,174.6Z" transform="translate(-179.99 -38.97)"/><path class="cls-13" d="M373.76,219.74v8.18a3.35,3.35,0,0,1-1.09,2.47l-16.82,15.34,1.91,2.92,23.17-15.2a4.49,4.49,0,0,0,1.84-3.18l1.59-15.2Z" transform="translate(-179.99 -38.97)"/><path class="cls-2" d="M380.42,193.5s5.1,7.68,7,27.88c0,0-8.72,2.82-13.66,1.22S380.42,193.5,380.42,193.5Z" transform="translate(-179.99 -38.97)"/><path class="cls-3" d="M372.83,203.2s-2,10.7-2.12,15.72a3.22,3.22,0,0,0,2.12,3.1h0Z" transform="translate(-179.99 -38.97)"/><path class="cls-10" d="M368.46,256.38l-3.72-.5-24-13.85a3.32,3.32,0,0,0-3,.12l-17,9.82-2.25-.3v2.24h0a.87.87,0,0,0,.51.79l27.2,15.7a3.38,3.38,0,0,0,3-.12l18.52-10.69a1.2,1.2,0,0,0,.73-1h0Z" transform="translate(-179.99 -38.97)"/><path class="cls-7" d="M350.43,247.62l-1.71-1H330L320.73,252l-2.25-.3v2.24h0a.87.87,0,0,0,.51.79l27.2,15.7a2.77,2.77,0,0,0,1.55.29Z" transform="translate(-179.99 -38.97)"/><path class="cls-10" d="M319.48,251.8l-1-.13v2.24h0a.87.87,0,0,0,.51.79l.48.27Z" transform="translate(-179.99 -38.97)"/><path class="cls-10" d="M346.48,270.53a3.54,3.54,0,0,0,2.55-.16v-3.81h-2.55Z" transform="translate(-179.99 -38.97)"/><path class="cls-5" d="M346.2,268.16,319,252.46c-.77-.44-.67-1.22.22-1.73L337.74,240a3.33,3.33,0,0,1,3-.13l27.2,15.71c.77.44.67,1.22-.21,1.73L349.21,268A3.34,3.34,0,0,1,346.2,268.16Z" transform="translate(-179.99 -38.97)"/><path class="cls-9" d="M345.74,265.78l-22.61-13c-.64-.37-.56-1,.18-1.45l9.92-5.58a2.8,2.8,0,0,1,2.5-.1l22.61,13.06c.64.37.56,1-.18,1.44l-9.92,5.58A2.77,2.77,0,0,1,345.74,265.78Z" transform="translate(-179.99 -38.97)"/><path class="cls-13" d="M338.79,239.52l-.28,1.88a13.88,13.88,0,0,0,.12,4.81l.34,1.65a2.31,2.31,0,0,0,1.86,1.83h0a1.29,1.29,0,0,0,1.51-1.12l.44-4s1,1.34,1.53,1.34-.56-4-1.68-6.29S338.79,239.52,338.79,239.52Z" transform="translate(-179.99 -38.97)"/><path class="cls-13" d="M348,209.69l-2.92,5.78a11.4,11.4,0,0,0-1.19,4.38l-1.27,19.76-3.84-.09-1.74-22.19a7.84,7.84,0,0,1,.1-2.05l2-11.25Z" transform="translate(-179.99 -38.97)"/><path class="cls-6" d="M345.28,269.67l-2.28-3-24-13.88a3.35,3.35,0,0,1-1.39-2.66l0-19.64-1.38-1.8,1.29-.75h0a.87.87,0,0,1,.94,0l27.18,15.74a3.35,3.35,0,0,1,1.39,2.67l0,21.38a1.2,1.2,0,0,1-.5,1.14h0Z" transform="translate(-179.99 -38.97)"/><path class="cls-7" d="M328.7,258.41l-1.71-1-9.35-16.25V230.51l-1.38-1.8,1.29-.75h0a.87.87,0,0,1,.94,0l27.18,15.74a2.84,2.84,0,0,1,1,1.2Z" transform="translate(-179.99 -38.97)"/><path class="cls-10" d="M316.88,229.51l-.61-.8,1.29-.75h0a.87.87,0,0,1,.94,0l.48.28Z" transform="translate(-179.99 -38.97)"/><path class="cls-8" d="M345.93,243.93a3.42,3.42,0,0,1,1.14,2.28l-2.66,1.54-1.27-2.21Z" transform="translate(-179.99 -38.97)"/><path class="cls-10" d="M344.39,244.5l-27.18-15.74c-.77-.44-1.39,0-1.39,1.06l0,21.38a3.34,3.34,0,0,0,1.39,2.66l27.19,15.74c.76.45,1.39,0,1.39-1.05l0-21.39A3.35,3.35,0,0,0,344.39,244.5Z" transform="translate(-179.99 -38.97)"/><path class="cls-13" d="M357.76,248.65l-.44.9a6,6,0,0,1-2.27,2.52l-2.7,1.66a2.68,2.68,0,0,1-2.76.07l-.09-.06a1.62,1.62,0,0,1-.23-2.49l2.82-2.9s-1.58,1.21-2,.72,1.54-2.1,3-2.16a5.71,5.71,0,0,0,2.82-1.18Z" transform="translate(-179.99 -38.97)"/><path class="cls-2" d="M350.6,183.22s-10.34,11.25-14.51,21.58a21.13,21.13,0,0,0,12.19,8.87C356.94,216.17,350.6,183.22,350.6,183.22Z" transform="translate(-179.99 -38.97)"/><path class="cls-3" d="M346.34,213,348,196.81,344.06,212A21.76,21.76,0,0,0,346.34,213Z" transform="translate(-179.99 -38.97)"/><path class="cls-5" d="M358.35,181l-2.78-.76a6.77,6.77,0,0,0,3.27,2.62c1.93.53,2.23-1.11,2.23-1.11Z" transform="translate(-179.99 -38.97)"/><circle class="cls-5" cx="191.66" cy="137.53" r="1.55"/><path class="cls-1" d="M221.79,280.62c-8.85,5.11-23.19,5.11-32,0s-8.86-13.4,0-18.51,23.2-5.1,32,0S230.64,275.51,221.79,280.62Z" transform="translate(-179.99 -38.97)"/><path class="cls-2" d="M231.55,260.18v-7.24h-1.37a16.51,16.51,0,0,0-6.18-5.79c-10.07-5.81-26.39-5.81-36.46,0a16.55,16.55,0,0,0-6.19,5.79H180v7.2h0c0,3.82,2.5,7.65,7.55,10.56,10.07,5.82,26.39,5.82,36.46,0C229,267.8,231.55,264,231.55,260.18Z" transform="translate(-179.99 -38.97)"/><ellipse class="cls-2" cx="25.78" cy="213.97" rx="25.78" ry="14.89"/><path class="cls-5" d="M224,263.46c-10.07,5.82-26.39,5.82-36.46,0-4.83-2.78-7.31-6.4-7.51-10-.22,4,2.27,8,7.51,11,10.07,5.81,26.39,5.81,36.46,0,5.24-3,7.73-7,7.51-11C231.31,257.06,228.83,260.68,224,263.46Z" transform="translate(-179.99 -38.97)"/><path class="cls-5" d="M193.34,257.87a1.18,1.18,0,0,1-.68-.95l0-9.7c0-.74,1-1.34,2.32-1.34s2.32.6,2.32,1.34l0,8,23.34-2.85c1.25-.16,2.48.31,2.75,1s-.54,1.43-1.79,1.59l-26.14,3.2a3.79,3.79,0,0,1-1.95-.27Z" transform="translate(-179.99 -38.97)"/><path class="cls-3" d="M374,108.75,335.54,86.54a2.31,2.31,0,0,0-2.18-.16v0l-4.58,2.16,2.73,1-5.55,28c-.45,2.28.57,4.93,2.28,5.92L365,144.63l-.65,3.28,4.63-2.17h0a3.35,3.35,0,0,0,1.65-2.47l5.67-28.61C376.76,112.38,375.74,109.74,374,108.75Z" transform="translate(-179.99 -38.97)"/><path class="cls-2" d="M362.05,147.8l-38.48-22.21c-1.71-1-2.73-3.64-2.28-5.92L327,91.07c.45-2.28,2.2-3.33,3.91-2.34l38.48,22.21c1.71,1,2.73,3.63,2.28,5.91L366,145.46C365.51,147.74,363.76,148.79,362.05,147.8Z" transform="translate(-179.99 -38.97)"/><path class="cls-5" d="M370.23,110.59,331.75,88.38a2.33,2.33,0,0,0-2.53,0,2.45,2.45,0,0,1,1.65.33l38.48,22.21c1.71,1,2.73,3.63,2.28,5.91L366,145.46a3.52,3.52,0,0,1-1.39,2.32,3.06,3.06,0,0,0,2.27-2.67l5.67-28.6C373,114.23,371.94,111.58,370.23,110.59Z" transform="translate(-179.99 -38.97)"/><path class="cls-5" d="M339.94,115.73a2,2,0,0,1-3.19,1.5,4.52,4.52,0,0,1-2-4.5,2,2,0,0,1,3.19-1.5A4.52,4.52,0,0,1,339.94,115.73Z" transform="translate(-179.99 -38.97)"/><ellipse class="cls-5" cx="345.21" cy="118.77" rx="2.49" ry="3.48" transform="translate(-199.04 104.08) rotate(-22.8)"/><path class="cls-5" d="M355.67,124.81a2,2,0,0,1-3.19,1.5,4.52,4.52,0,0,1-2-4.5,2,2,0,0,1,3.19-1.5A4.52,4.52,0,0,1,355.67,124.81Z" transform="translate(-179.99 -38.97)"/><path class="cls-10" d="M524.1,61.54,485.62,39.33a2.33,2.33,0,0,0-2.19-.16v0l-4.59,2.16,2.74,1-5.56,28c-.45,2.28.57,4.93,2.28,5.92L515.1,97.42l-.66,3.28,4.64-2.17h0a3.33,3.33,0,0,0,1.65-2.46l5.67-28.61C526.83,65.17,525.81,62.52,524.1,61.54Z" transform="translate(-179.99 -38.97)"/><path class="cls-9" d="M512.13,100.59,473.64,78.38c-1.71-1-2.73-3.64-2.28-5.92L477,43.86c.46-2.28,2.21-3.33,3.92-2.34l38.48,22.21c1.71,1,2.73,3.63,2.28,5.91L516,98.25C515.59,100.53,513.84,101.57,512.13,100.59Z" transform="translate(-179.99 -38.97)"/><path class="cls-5" d="M520.31,63.38,481.82,41.17a2.32,2.32,0,0,0-2.52,0,2.46,2.46,0,0,1,1.65.33l38.48,22.21c1.71,1,2.73,3.63,2.28,5.91L516,98.25a3.56,3.56,0,0,1-1.39,2.32,3,3,0,0,0,2.26-2.67l5.68-28.6C523,67,522,64.37,520.31,63.38Z" transform="translate(-179.99 -38.97)"/><path class="cls-5" d="M490,68.52a2,2,0,0,1-3.19,1.5,4.5,4.5,0,0,1-2-4.5A2,2,0,0,1,488,64,4.52,4.52,0,0,1,490,68.52Z" transform="translate(-179.99 -38.97)"/><path class="cls-5" d="M497.88,73.06a2,2,0,0,1-3.19,1.5,4.52,4.52,0,0,1-2-4.5,2,2,0,0,1,3.19-1.5A4.5,4.5,0,0,1,497.88,73.06Z" transform="translate(-179.99 -38.97)"/><path class="cls-5" d="M505.75,77.6a2,2,0,0,1-3.19,1.5,4.52,4.52,0,0,1-2-4.5,2,2,0,0,1,3.19-1.5A4.52,4.52,0,0,1,505.75,77.6Z" transform="translate(-179.99 -38.97)"/></svg>